<?xml version="1.0" encoding="UTF-8"?>
<!--Generator: Apple Native CoreSVG 148-->
<!DOCTYPE svg
PUBLIC "-//W3C//DTD SVG 1.1//EN"
       "http://www.w3.org/Graphics/SVG/1.1/DTD/svg11.dtd">
<svg version="1.1" xmlns="http://www.w3.org/2000/svg" xmlns:xlink="http://www.w3.org/1999/xlink" width="3300" height="2200">
 <!--glyph: "uni10024C.medium", point size: 100.000000, font version: "Version 16.0d11e1", template writer version: "8"-->
 <g id="Notes">
  <rect height="2200" id="artboard" style="fill:white;opacity:1" width="3300" x="0" y="0"/>
  <line id="" style="fill:none;stroke:black;opacity:1;stroke-width:0.5;" x1="263" x2="3036" y1="292" y2="292"/>
  <text style="stroke:none;fill:black;font-family:-apple-system,&quot;SF Pro Display&quot;,&quot;SF Pro Text&quot;,Helvetica,sans-serif;font-weight:bold;" transform="matrix(1 0 0 1 263 322)">Weight/Scale Variations</text>
  <text style="stroke:none;fill:black;font-family:-apple-system,&quot;SF Pro Display&quot;,&quot;SF Pro Text&quot;,Helvetica,sans-serif;text-anchor:middle;" transform="matrix(1 0 0 1 559.711 322)">Ultralight</text>
  <text style="stroke:none;fill:black;font-family:-apple-system,&quot;SF Pro Display&quot;,&quot;SF Pro Text&quot;,Helvetica,sans-serif;text-anchor:middle;" transform="matrix(1 0 0 1 856.422 322)">Thin</text>
  <text style="stroke:none;fill:black;font-family:-apple-system,&quot;SF Pro Display&quot;,&quot;SF Pro Text&quot;,Helvetica,sans-serif;text-anchor:middle;" transform="matrix(1 0 0 1 1153.13 322)">Light</text>
  <text style="stroke:none;fill:black;font-family:-apple-system,&quot;SF Pro Display&quot;,&quot;SF Pro Text&quot;,Helvetica,sans-serif;text-anchor:middle;" transform="matrix(1 0 0 1 1449.84 322)">Regular</text>
  <text style="stroke:none;fill:black;font-family:-apple-system,&quot;SF Pro Display&quot;,&quot;SF Pro Text&quot;,Helvetica,sans-serif;text-anchor:middle;" transform="matrix(1 0 0 1 1746.56 322)">Medium</text>
  <text style="stroke:none;fill:black;font-family:-apple-system,&quot;SF Pro Display&quot;,&quot;SF Pro Text&quot;,Helvetica,sans-serif;text-anchor:middle;" transform="matrix(1 0 0 1 2043.27 322)">Semibold</text>
  <text style="stroke:none;fill:black;font-family:-apple-system,&quot;SF Pro Display&quot;,&quot;SF Pro Text&quot;,Helvetica,sans-serif;text-anchor:middle;" transform="matrix(1 0 0 1 2339.98 322)">Bold</text>
  <text style="stroke:none;fill:black;font-family:-apple-system,&quot;SF Pro Display&quot;,&quot;SF Pro Text&quot;,Helvetica,sans-serif;text-anchor:middle;" transform="matrix(1 0 0 1 2636.69 322)">Heavy</text>
  <text style="stroke:none;fill:black;font-family:-apple-system,&quot;SF Pro Display&quot;,&quot;SF Pro Text&quot;,Helvetica,sans-serif;text-anchor:middle;" transform="matrix(1 0 0 1 2933.4 322)">Black</text>
  <line id="" style="fill:none;stroke:black;opacity:1;stroke-width:0.5;" x1="263" x2="3036" y1="1903" y2="1903"/>
  <g id="" transform="matrix(1 0 0 1 263 1933)">
   <path d="M 9.24805 0.830078 C 13.5547 0.830078 17.1387 -2.74414 17.1387 -7.05078 C 17.1387 -11.3574 13.5449 -14.9316 9.23828 -14.9316 C 4.94141 -14.9316 1.36719 -11.3574 1.36719 -7.05078 C 1.36719 -2.74414 4.95117 0.830078 9.24805 0.830078 Z M 9.24805 -0.654297 C 5.70312 -0.654297 2.87109 -3.49609 2.87109 -7.05078 C 2.87109 -10.6055 5.69336 -13.4473 9.23828 -13.4473 C 12.793 -13.4473 15.6348 -10.6055 15.6445 -7.05078 C 15.6543 -3.49609 12.8027 -0.654297 9.24805 -0.654297 Z M 9.22852 -3.62305 C 9.69727 -3.62305 9.9707 -3.93555 9.9707 -4.45312 L 9.9707 -6.31836 L 12.002 -6.31836 C 12.5 -6.31836 12.832 -6.57227 12.832 -7.04102 C 12.832 -7.51953 12.5195 -7.7832 12.002 -7.7832 L 9.9707 -7.7832 L 9.9707 -9.81445 C 9.9707 -10.332 9.69727 -10.6543 9.22852 -10.6543 C 8.75977 -10.6543 8.50586 -10.3125 8.50586 -9.81445 L 8.50586 -7.7832 L 6.49414 -7.7832 C 5.97656 -7.7832 5.64453 -7.51953 5.64453 -7.04102 C 5.64453 -6.57227 5.99609 -6.31836 6.49414 -6.31836 L 8.50586 -6.31836 L 8.50586 -4.45312 C 8.50586 -3.95508 8.75977 -3.62305 9.22852 -3.62305 Z"/>
  </g>
  <g id="" transform="matrix(1 0 0 1 281.506 1933)">
   <path d="M 11.709 2.91016 C 17.1582 2.91016 21.6699 -1.61133 21.6699 -7.05078 C 21.6699 -12.5 17.1484 -17.0117 11.6992 -17.0117 C 6.25977 -17.0117 1.74805 -12.5 1.74805 -7.05078 C 1.74805 -1.61133 6.26953 2.91016 11.709 2.91016 Z M 11.709 1.25 C 7.09961 1.25 3.41797 -2.44141 3.41797 -7.05078 C 3.41797 -11.6602 7.08984 -15.3516 11.6992 -15.3516 C 16.3086 -15.3516 20 -11.6602 20.0098 -7.05078 C 20.0195 -2.44141 16.3184 1.25 11.709 1.25 Z M 11.6797 -2.66602 C 12.207 -2.66602 12.5098 -3.01758 12.5098 -3.59375 L 12.5098 -6.23047 L 15.3223 -6.23047 C 15.8691 -6.23047 16.25 -6.51367 16.25 -7.03125 C 16.25 -7.55859 15.8887 -7.86133 15.3223 -7.86133 L 12.5098 -7.86133 L 12.5098 -10.6836 C 12.5098 -11.25 12.207 -11.6113 11.6797 -11.6113 C 11.1621 -11.6113 10.8789 -11.2305 10.8789 -10.6836 L 10.8789 -7.86133 L 8.07617 -7.86133 C 7.50977 -7.86133 7.13867 -7.55859 7.13867 -7.03125 C 7.13867 -6.51367 7.5293 -6.23047 8.07617 -6.23047 L 10.8789 -6.23047 L 10.8789 -3.59375 C 10.8789 -3.03711 11.1621 -2.66602 11.6797 -2.66602 Z"/>
  </g>
  <g id="" transform="matrix(1 0 0 1 304.924 1933)">
   <path d="M 14.9707 5.66406 C 21.9336 5.66406 27.6953 -0.0976562 27.6953 -7.05078 C 27.6953 -14.0137 21.9238 -19.7754 14.9609 -19.7754 C 8.00781 -19.7754 2.25586 -14.0137 2.25586 -7.05078 C 2.25586 -0.0976562 8.01758 5.66406 14.9707 5.66406 Z M 14.9707 3.84766 C 8.93555 3.84766 4.08203 -1.01562 4.08203 -7.05078 C 4.08203 -13.0957 8.92578 -17.9492 14.9609 -17.9492 C 21.0059 -17.9492 25.8594 -13.0957 25.8691 -7.05078 C 25.8789 -1.01562 21.0156 3.84766 14.9707 3.84766 Z M 14.9414 -1.38672 C 15.5176 -1.38672 15.8594 -1.77734 15.8594 -2.38281 L 15.8594 -6.13281 L 19.7754 -6.13281 C 20.3711 -6.13281 20.7812 -6.46484 20.7812 -7.02148 C 20.7812 -7.59766 20.3906 -7.93945 19.7754 -7.93945 L 15.8594 -7.93945 L 15.8594 -11.8652 C 15.8594 -12.4805 15.5176 -12.8711 14.9414 -12.8711 C 14.375 -12.8711 14.0527 -12.4609 14.0527 -11.8652 L 14.0527 -7.93945 L 10.1465 -7.93945 C 9.53125 -7.93945 9.13086 -7.59766 9.13086 -7.02148 C 9.13086 -6.46484 9.55078 -6.13281 10.1465 -6.13281 L 14.0527 -6.13281 L 14.0527 -2.38281 C 14.0527 -1.79688 14.375 -1.38672 14.9414 -1.38672 Z"/>
  </g>
  <text style="stroke:none;fill:black;font-family:-apple-system,&quot;SF Pro Display&quot;,&quot;SF Pro Text&quot;,Helvetica,sans-serif;font-weight:bold;" transform="matrix(1 0 0 1 263 1953)">Design Variations</text>
  <text style="stroke:none;fill:black;font-family:-apple-system,&quot;SF Pro Display&quot;,&quot;SF Pro Text&quot;,Helvetica,sans-serif;" transform="matrix(1 0 0 1 263 1971)">Symbols are supported in up to nine weights and three scales.</text>
  <text style="stroke:none;fill:black;font-family:-apple-system,&quot;SF Pro Display&quot;,&quot;SF Pro Text&quot;,Helvetica,sans-serif;" transform="matrix(1 0 0 1 263 1989)">For optimal layout with text and other symbols, vertically align</text>
  <text style="stroke:none;fill:black;font-family:-apple-system,&quot;SF Pro Display&quot;,&quot;SF Pro Text&quot;,Helvetica,sans-serif;" transform="matrix(1 0 0 1 263 2007)">symbols with the adjacent text.</text>
  <line id="" style="fill:none;stroke:#00AEEF;stroke-width:0.5;opacity:1.0;" x1="776" x2="776" y1="1919" y2="1933"/>
  <g id="" transform="matrix(1 0 0 1 776 1933)">
   <path d="M 3.31055 0.126953 C 3.82812 0.126953 4.08203 -0.0683594 4.26758 -0.605469 L 5.52734 -4.0625 L 11.2891 -4.0625 L 12.5488 -0.605469 C 12.7344 -0.0683594 12.9883 0.126953 13.4961 0.126953 C 14.0137 0.126953 14.3457 -0.185547 14.3457 -0.673828 C 14.3457 -0.839844 14.3164 -0.986328 14.2383 -1.20117 L 9.6582 -13.3887 C 9.43359 -13.9941 9.0332 -14.2871 8.4082 -14.2871 C 7.80273 -14.2871 7.39258 -13.9941 7.17773 -13.3984 L 2.59766 -1.19141 C 2.51953 -0.976562 2.49023 -0.830078 2.49023 -0.664062 C 2.49023 -0.175781 2.80273 0.126953 3.31055 0.126953 Z M 6.00586 -5.53711 L 8.37891 -12.1094 L 8.42773 -12.1094 L 10.8008 -5.53711 Z"/>
  </g>
  <line id="" style="fill:none;stroke:#00AEEF;stroke-width:0.5;opacity:1.0;" x1="792.836" x2="792.836" y1="1919" y2="1933"/>
  <text style="stroke:none;fill:black;font-family:-apple-system,&quot;SF Pro Display&quot;,&quot;SF Pro Text&quot;,Helvetica,sans-serif;font-weight:bold;" transform="matrix(1 0 0 1 776 1953)">Margins</text>
  <text style="stroke:none;fill:black;font-family:-apple-system,&quot;SF Pro Display&quot;,&quot;SF Pro Text&quot;,Helvetica,sans-serif;" transform="matrix(1 0 0 1 776 1971)">Leading and trailing margins on the left and right side of each symbol</text>
  <text style="stroke:none;fill:black;font-family:-apple-system,&quot;SF Pro Display&quot;,&quot;SF Pro Text&quot;,Helvetica,sans-serif;" transform="matrix(1 0 0 1 776 1989)">can be adjusted by modifying the x-location of the margin guidelines.</text>
  <text style="stroke:none;fill:black;font-family:-apple-system,&quot;SF Pro Display&quot;,&quot;SF Pro Text&quot;,Helvetica,sans-serif;" transform="matrix(1 0 0 1 776 2007)">Modifications are automatically applied proportionally to all</text>
  <text style="stroke:none;fill:black;font-family:-apple-system,&quot;SF Pro Display&quot;,&quot;SF Pro Text&quot;,Helvetica,sans-serif;" transform="matrix(1 0 0 1 776 2025)">scales and weights.</text>
  <g id="" transform="matrix(1 0 0 1 1289 1933)">
   <path d="M 2.8418 1.86523 L 4.54102 3.57422 C 5.40039 4.44336 6.38672 4.38477 7.31445 3.35938 L 17.4902 -7.85156 C 17.7539 -7.76367 18.0273 -7.7832 18.3398 -7.8418 L 19.4043 -8.03711 L 20.0684 -7.36328 L 20.0293 -6.80664 C 19.9902 -6.30859 20.1172 -5.92773 20.6055 -5.44922 L 21.3672 -4.70703 C 21.8457 -4.22852 22.4609 -4.19922 22.9297 -4.66797 L 25.8398 -7.58789 C 26.3086 -8.05664 26.2891 -8.65234 25.8105 -9.13086 L 25.0391 -9.89258 C 24.5605 -10.3711 24.1895 -10.5273 23.7109 -10.4883 L 23.1348 -10.4395 L 22.4902 -11.0742 L 22.7344 -12.1973 C 22.8613 -12.7637 22.7051 -13.2031 22.1191 -13.7891 L 19.9219 -15.9766 C 16.582 -19.2969 12.1484 -19.2188 9.25781 -16.3281 C 8.83789 -15.918 8.80859 -15.3418 9.04297 -14.9512 C 9.27734 -14.5898 9.73633 -14.3555 10.3809 -14.5215 C 11.8457 -14.8633 13.3691 -14.9219 14.7949 -13.9844 L 14.209 -12.5293 C 14.0137 -12.0508 13.9844 -11.6504 14.1113 -11.2891 L 3.04688 -0.898438 C 2.06055 0.0195312 1.98242 0.996094 2.8418 1.86523 Z M 10.752 -15.957 C 13.1836 -17.7344 16.4746 -17.4316 18.7012 -15.2051 L 21.1328 -12.793 C 21.3672 -12.5586 21.4062 -12.373 21.3379 -12.0312 L 21.0156 -10.5469 L 22.5195 -9.0625 L 23.5059 -9.12109 C 23.7598 -9.13086 23.8379 -9.11133 24.0332 -8.91602 L 24.6094 -8.33984 L 22.168 -5.89844 L 21.5918 -6.47461 C 21.3965 -6.66992 21.3672 -6.74805 21.377 -7.01172 L 21.4453 -7.98828 L 19.9512 -9.47266 L 18.4277 -9.21875 C 18.1055 -9.15039 17.959 -9.17969 17.7148 -9.41406 L 15.7129 -11.416 C 15.459 -11.6504 15.4297 -11.8164 15.5859 -12.1875 L 16.4648 -14.2773 C 14.9023 -15.7324 12.8711 -16.3574 10.8398 -15.7617 C 10.6836 -15.7227 10.625 -15.8496 10.752 -15.957 Z M 5.27344 2.30469 L 4.10156 1.14258 C 3.63281 0.683594 3.74023 0.341797 4.14062 -0.0195312 L 14.9512 -10.1953 L 16.416 -8.71094 L 6.42578 2.27539 C 6.07422 2.67578 5.74219 2.77344 5.27344 2.30469 Z"/>
  </g>
  <text style="stroke:none;fill:black;font-family:-apple-system,&quot;SF Pro Display&quot;,&quot;SF Pro Text&quot;,Helvetica,sans-serif;font-weight:bold;" transform="matrix(1 0 0 1 1289 1953)">Exporting</text>
  <text style="stroke:none;fill:black;font-family:-apple-system,&quot;SF Pro Display&quot;,&quot;SF Pro Text&quot;,Helvetica,sans-serif;" transform="matrix(1 0 0 1 1289 1971)">Symbols should be outlined when exporting to ensure the</text>
  <text style="stroke:none;fill:black;font-family:-apple-system,&quot;SF Pro Display&quot;,&quot;SF Pro Text&quot;,Helvetica,sans-serif;" transform="matrix(1 0 0 1 1289 1989)">design is preserved when submitting to Xcode.</text>
  <text id="template-version" style="stroke:none;fill:black;font-family:-apple-system,&quot;SF Pro Display&quot;,&quot;SF Pro Text&quot;,Helvetica,sans-serif;text-anchor:end;" transform="matrix(1 0 0 1 3036 1933)">Template v.2.0</text>
  <text style="stroke:none;fill:black;font-family:-apple-system,&quot;SF Pro Display&quot;,&quot;SF Pro Text&quot;,Helvetica,sans-serif;text-anchor:end;" transform="matrix(1 0 0 1 3036 1951)">Requires Xcode 12 or greater</text>
  <text style="stroke:none;fill:black;font-family:-apple-system,&quot;SF Pro Display&quot;,&quot;SF Pro Text&quot;,Helvetica,sans-serif;text-anchor:end;" transform="matrix(1 0 0 1 3036 1969)">Generated from arrowshape.turn.up.left</text>
  <text style="stroke:none;fill:black;font-family:-apple-system,&quot;SF Pro Display&quot;,&quot;SF Pro Text&quot;,Helvetica,sans-serif;text-anchor:end;" transform="matrix(1 0 0 1 3036 1987)">Typeset at 100 points</text>
  <text style="stroke:none;fill:black;font-family:-apple-system,&quot;SF Pro Display&quot;,&quot;SF Pro Text&quot;,Helvetica,sans-serif;" transform="matrix(1 0 0 1 263 726)">Small</text>
  <text style="stroke:none;fill:black;font-family:-apple-system,&quot;SF Pro Display&quot;,&quot;SF Pro Text&quot;,Helvetica,sans-serif;" transform="matrix(1 0 0 1 263 1156)">Medium</text>
  <text style="stroke:none;fill:black;font-family:-apple-system,&quot;SF Pro Display&quot;,&quot;SF Pro Text&quot;,Helvetica,sans-serif;" transform="matrix(1 0 0 1 263 1586)">Large</text>
 </g>
 <g id="Guides">
  <g id="H-reference" style="fill:#27AAE1;stroke:none;" transform="matrix(1 0 0 1 339 696)">
   <path d="M 0.976562 0 L 3.66211 0 L 12.9883 -24.4629 L 45.7031 -24.4629 L 55.0781 0 L 57.7148 0 L 30.6152 -70.459 L 28.125 -70.459 Z M 29.2969 -67.1387 L 29.3945 -67.1387 L 44.873 -26.709 L 13.8672 -26.709 Z"/>
  </g>
  <line id="Baseline-S" style="fill:none;stroke:#27AAE1;opacity:1;stroke-width:0.5;" x1="263" x2="3036" y1="696" y2="696"/>
  <line id="Capline-S" style="fill:none;stroke:#27AAE1;opacity:1;stroke-width:0.5;" x1="263" x2="3036" y1="625.541" y2="625.541"/>
  <g id="H-reference" style="fill:#27AAE1;stroke:none;" transform="matrix(1 0 0 1 339 1126)">
   <path d="M 0.976562 0 L 3.66211 0 L 12.9883 -24.4629 L 45.7031 -24.4629 L 55.0781 0 L 57.7148 0 L 30.6152 -70.459 L 28.125 -70.459 Z M 29.2969 -67.1387 L 29.3945 -67.1387 L 44.873 -26.709 L 13.8672 -26.709 Z"/>
  </g>
  <line id="Baseline-M" style="fill:none;stroke:#27AAE1;opacity:1;stroke-width:0.5;" x1="263" x2="3036" y1="1126" y2="1126"/>
  <line id="Capline-M" style="fill:none;stroke:#27AAE1;opacity:1;stroke-width:0.5;" x1="263" x2="3036" y1="1055.54" y2="1055.54"/>
  <g id="H-reference" style="fill:#27AAE1;stroke:none;" transform="matrix(1 0 0 1 339 1556)">
   <path d="M 0.976562 0 L 3.66211 0 L 12.9883 -24.4629 L 45.7031 -24.4629 L 55.0781 0 L 57.7148 0 L 30.6152 -70.459 L 28.125 -70.459 Z M 29.2969 -67.1387 L 29.3945 -67.1387 L 44.873 -26.709 L 13.8672 -26.709 Z"/>
  </g>
  <line id="Baseline-L" style="fill:none;stroke:#27AAE1;opacity:1;stroke-width:0.5;" x1="263" x2="3036" y1="1556" y2="1556"/>
  <line id="Capline-L" style="fill:none;stroke:#27AAE1;opacity:1;stroke-width:0.5;" x1="263" x2="3036" y1="1485.54" y2="1485.54"/>
  <line id="left-margin" style="fill:none;stroke:#00AEEF;stroke-width:0.5;opacity:1.0;" x1="1387.86" x2="1387.86" y1="1030.79" y2="1150.12"/>
  <line id="right-margin" style="fill:none;stroke:#00AEEF;stroke-width:0.5;opacity:1.0;" x1="1511.83" x2="1511.83" y1="1030.79" y2="1150.12"/>
 </g>
 <g id="Symbols">
  <g id="Black-L" transform="matrix(1 0 0 1 2851.76 1556)">
   <path d="M 75.5371 26.3672 C 82.4707 26.3672 87.7441 21.0938 87.7441 14.209 L 87.7441 -3.71094 L 88.4277 -3.71094 C 106.982 -3.71094 116.846 4.6875 123.535 16.6016 C 127.1 22.9004 130.811 25.1953 136.035 25.1953 C 143.701 25.1953 147.998 17.5293 147.998 1.9043 C 147.998 -40.9668 127.002 -66.2598 88.4277 -66.2598 L 87.7441 -66.2598 L 87.7441 -84.4727 C 87.7441 -91.4062 82.4707 -96.8262 75.4883 -96.8262 C 71.2402 -96.8262 67.9688 -95.2148 63.2812 -90.9668 L 12.793 -44.3848 C 10.2051 -41.9434 8.83789 -38.4766 8.83789 -35.2051 C 8.83789 -32.1777 10.2539 -28.418 12.8418 -25.9766 L 63.2812 20.6543 C 67.5781 24.6582 71.0449 26.3672 75.5371 26.3672 Z M 70.2148 1.36719 C 69.9219 1.36719 69.5801 1.17188 69.2871 0.878906 L 31.9824 -34.2773 C 31.5918 -34.668 31.4453 -34.9121 31.4453 -35.2051 C 31.4453 -35.5469 31.5918 -35.791 31.9824 -36.1816 L 69.2871 -71.4844 C 69.5801 -71.7285 69.9219 -71.8262 70.2148 -71.8262 C 70.8008 -71.8262 71.3379 -71.3867 71.3379 -70.6543 L 71.3379 -50.7812 C 71.3379 -49.3652 71.9238 -48.7305 73.3398 -48.7305 L 80.4688 -48.7305 C 113.867 -48.7305 130.957 -30.6641 131.396 -1.07422 C 131.396 -0.732422 131.201 -0.585938 131.006 -0.585938 C 130.762 -0.585938 130.664 -0.683594 130.469 -1.02539 C 122.852 -16.2109 106.299 -21.6797 80.4688 -21.6797 L 73.3398 -21.6797 C 71.9238 -21.6797 71.3379 -21.0938 71.3379 -19.6777 L 71.3379 0.146484 C 71.3379 0.830078 70.8008 1.36719 70.2148 1.36719 Z"/>
  </g>
  <g id="Heavy-L" transform="matrix(1 0 0 1 2555.63 1556)">
   <path d="M 74.2676 25.293 C 80.4688 25.293 85.1562 20.6055 85.1562 14.4043 L 85.1562 -5.12695 L 86.1328 -5.12695 C 106.396 -5.12695 117.676 2.88086 125.244 16.7969 C 128.418 22.4609 131.836 24.4141 136.426 24.4141 C 143.018 24.4141 146.973 17.8711 146.973 4.83398 C 146.973 -39.1602 125.977 -64.9414 86.1328 -64.9414 L 85.1562 -64.9414 L 85.1562 -84.668 C 85.1562 -90.8691 80.4688 -95.752 74.2188 -95.752 C 70.2637 -95.752 67.334 -94.2383 63.0859 -90.332 L 12.793 -43.8477 C 10.2051 -41.4062 8.98438 -38.1836 8.98438 -35.2051 C 8.98438 -32.4219 10.2539 -29.0039 12.8418 -26.6113 L 63.0859 20.0684 C 66.9922 23.6816 70.166 25.293 74.2676 25.293 Z M 69.5312 3.4668 C 69.1895 3.4668 68.8477 3.32031 68.5059 2.97852 L 29.1992 -34.082 C 28.7109 -34.5703 28.5645 -34.8633 28.5645 -35.2051 C 28.5645 -35.5957 28.7109 -35.8887 29.1992 -36.377 L 68.5059 -73.6328 C 68.7988 -73.9258 69.1406 -74.0723 69.4824 -74.0723 C 70.1172 -74.0723 70.5566 -73.6328 70.5566 -72.9492 L 70.5566 -51.6602 C 70.5566 -50.2441 71.1914 -49.6094 72.5586 -49.6094 L 79.834 -49.6094 C 115.234 -49.6094 131.885 -29.1992 132.471 1.36719 C 132.471 1.75781 132.275 1.9043 132.031 1.9043 C 131.787 1.9043 131.641 1.75781 131.445 1.36719 C 123.828 -14.209 106.689 -20.8008 79.834 -20.8008 L 72.5586 -20.8008 C 71.1914 -20.8008 70.5566 -20.2148 70.5566 -18.7988 L 70.5566 2.29492 C 70.5566 2.97852 70.1172 3.4668 69.5312 3.4668 Z"/>
  </g>
  <g id="Bold-L" transform="matrix(1 0 0 1 2259.58 1556)">
   <path d="M 72.8516 24.0723 C 78.2715 24.0723 82.2754 20.0195 82.2754 14.5996 L 82.2754 -6.73828 L 83.6426 -6.73828 C 105.713 -6.73828 118.604 0.78125 127.148 16.9922 C 129.883 21.9727 133.008 23.4863 136.914 23.4863 C 142.285 23.4863 145.801 18.2617 145.801 8.05664 C 145.801 -37.1582 124.756 -63.4277 83.6426 -63.4277 L 82.2754 -63.4277 L 82.2754 -84.8633 C 82.2754 -90.2832 78.2715 -94.5312 72.7539 -94.5312 C 69.2383 -94.5312 66.6504 -93.1152 62.8418 -89.6484 L 12.793 -43.1641 C 10.2051 -40.7227 9.17969 -37.8906 9.17969 -35.2539 C 9.17969 -32.7148 10.2051 -29.7363 12.793 -27.2949 L 62.8418 19.3848 C 66.3086 22.6074 69.1895 24.0723 72.8516 24.0723 Z M 68.7012 5.85938 C 68.3594 5.85938 68.0176 5.66406 67.627 5.32227 L 26.0254 -33.8867 C 25.4395 -34.4238 25.293 -34.8145 25.293 -35.2539 C 25.293 -35.6934 25.4883 -36.0352 26.0254 -36.5723 L 67.627 -76.0742 C 67.9199 -76.3672 68.3105 -76.5625 68.7012 -76.5625 C 69.2871 -76.5625 69.7266 -76.123 69.7266 -75.4883 L 69.7266 -52.6367 C 69.7266 -51.2207 70.3125 -50.5859 71.7285 -50.5859 L 79.0527 -50.5859 C 116.797 -50.5859 132.959 -27.5391 133.691 4.05273 C 133.691 4.49219 133.496 4.6875 133.203 4.6875 C 132.91 4.6875 132.764 4.49219 132.568 4.05273 C 124.902 -12.0117 107.08 -19.7754 79.0527 -19.7754 L 71.7285 -19.7754 C 70.3125 -19.7754 69.7266 -19.1895 69.7266 -17.7734 L 69.7266 4.73633 C 69.7266 5.37109 69.2871 5.85938 68.7012 5.85938 Z"/>
  </g>
  <g id="Semibold-L" transform="matrix(1 0 0 1 1963.34 1556)">
   <path d="M 71.875 23.2422 C 76.709 23.2422 80.2734 19.5801 80.2734 14.7949 L 80.2734 -7.8125 L 81.8848 -7.8125 C 105.225 -7.8125 119.238 -0.634766 128.467 17.1387 C 130.908 21.6309 133.838 22.8516 137.207 22.8516 C 141.748 22.8516 145.02 18.5547 145.02 10.3027 C 145.02 -35.791 123.975 -62.4023 81.8848 -62.4023 L 80.2734 -62.4023 L 80.2734 -85.0098 C 80.2734 -89.8438 76.709 -93.7012 71.7773 -93.7012 C 68.5059 -93.7012 66.1621 -92.3828 62.6953 -89.1602 L 12.793 -42.7246 C 10.1562 -40.2832 9.27734 -37.6465 9.27734 -35.2539 C 9.27734 -32.9102 10.2051 -30.1758 12.793 -27.7832 L 62.6953 18.8965 C 65.8691 21.8262 68.5059 23.2422 71.875 23.2422 Z M 68.1641 7.4707 C 67.7734 7.4707 67.4316 7.27539 67.041 6.88477 L 23.877 -33.7402 C 23.1934 -34.375 22.998 -34.8145 22.998 -35.2539 C 22.998 -35.7422 23.2422 -36.1328 23.877 -36.7676 L 66.9922 -77.7344 C 67.334 -78.0273 67.7246 -78.2715 68.1152 -78.2715 C 68.7012 -78.2715 69.1406 -77.8809 69.1406 -77.2461 L 69.1406 -53.2715 C 69.1406 -51.8555 69.7266 -51.2695 71.1426 -51.2695 L 78.5645 -51.2695 C 117.822 -51.2695 133.691 -26.416 134.521 5.95703 C 134.521 6.39648 134.326 6.64062 133.984 6.64062 C 133.691 6.64062 133.545 6.34766 133.301 5.9082 C 125.684 -10.498 107.373 -19.0918 78.5645 -19.0918 L 71.1426 -19.0918 C 69.7266 -19.0918 69.1406 -18.5059 69.1406 -17.0898 L 69.1406 6.39648 C 69.1406 7.03125 68.75 7.4707 68.1641 7.4707 Z"/>
  </g>
  <g id="Medium-L" transform="matrix(1 0 0 1 1666.97 1556)">
   <path d="M 71.1426 22.5586 C 75.5859 22.5586 78.7598 19.2871 78.7598 14.8926 L 78.7598 -8.64258 L 80.5664 -8.64258 C 104.883 -8.64258 119.727 -1.70898 129.492 17.2363 C 131.689 21.3867 134.424 22.3633 137.451 22.3633 C 141.357 22.3633 144.434 18.75 144.434 11.9629 C 144.434 -34.7168 123.34 -61.6211 80.5664 -61.6211 L 78.7598 -61.6211 L 78.7598 -85.1562 C 78.7598 -89.5508 75.5859 -93.1152 71.0449 -93.1152 C 67.9688 -93.1152 65.7715 -91.7969 62.5488 -88.8184 L 12.793 -42.4316 C 10.1562 -39.9414 9.375 -37.5 9.375 -35.2539 C 9.375 -33.1055 10.2051 -30.5664 12.793 -28.125 L 62.5488 18.5547 C 65.5273 21.2891 68.0176 22.5586 71.1426 22.5586 Z M 67.7246 8.69141 C 67.3828 8.69141 66.9922 8.54492 66.5527 8.10547 L 22.2168 -33.6426 C 21.5332 -34.3262 21.2891 -34.7656 21.2891 -35.2539 C 21.2891 -35.7422 21.5332 -36.2305 22.2168 -36.8652 L 66.5527 -79.0039 C 66.8945 -79.2969 67.2852 -79.541 67.7246 -79.541 C 68.3105 -79.541 68.7012 -79.1504 68.7012 -78.5645 L 68.7012 -53.8086 C 68.7012 -52.3926 69.2871 -51.8066 70.7031 -51.8066 L 78.1738 -51.8066 C 118.652 -51.8066 134.229 -25.5371 135.107 7.37305 C 135.107 7.8125 134.961 8.10547 134.57 8.10547 C 134.277 8.10547 134.082 7.8125 133.887 7.32422 C 126.221 -9.32617 107.617 -18.5547 78.1738 -18.5547 L 70.7031 -18.5547 C 69.2871 -18.5547 68.7012 -17.9688 68.7012 -16.5527 L 68.7012 7.66602 C 68.7012 8.30078 68.3105 8.69141 67.7246 8.69141 Z"/>
  </g>
  <g id="Regular-L" transform="matrix(1 0 0 1 1370.69 1556)">
   <path d="M 70.166 21.7285 C 74.0723 21.7285 76.7578 18.8965 76.7578 15.0391 L 76.7578 -9.7168 L 78.8086 -9.7168 C 104.443 -9.7168 120.361 -3.125 130.762 17.334 C 132.715 21.0449 135.205 21.7285 137.744 21.7285 C 140.82 21.7285 143.604 19.043 143.604 14.209 C 143.604 -33.3496 122.559 -60.5957 78.8086 -60.5957 L 76.7578 -60.5957 L 76.7578 -85.2539 C 76.7578 -89.1113 74.0723 -92.2852 70.0684 -92.2852 C 67.2363 -92.2852 65.2832 -91.0156 62.4023 -88.3301 L 12.793 -41.9922 C 10.1562 -39.502 9.47266 -37.3047 9.47266 -35.2539 C 9.47266 -33.3008 10.2051 -31.0547 12.793 -28.6133 L 62.4023 18.0664 C 65.0391 20.5566 67.334 21.7285 70.166 21.7285 Z M 67.1875 10.3027 C 66.7969 10.3027 66.4062 10.1562 65.9668 9.7168 L 20.0684 -33.4961 C 19.2871 -34.2285 19.0918 -34.7168 19.0918 -35.2539 C 19.0918 -35.791 19.3359 -36.3281 20.0684 -37.0117 L 65.918 -80.6641 C 66.3086 -80.957 66.6992 -81.25 67.1875 -81.25 C 67.7246 -81.25 68.1152 -80.8594 68.1152 -80.3223 L 68.1152 -54.4434 C 68.1152 -53.0762 68.7012 -52.4414 70.1172 -52.4414 L 77.6855 -52.4414 C 119.678 -52.4414 134.961 -24.4141 135.938 9.22852 C 135.938 9.7168 135.742 10.0098 135.4 10.0098 C 135.059 10.0098 134.863 9.66797 134.619 9.13086 C 127.002 -7.8125 107.91 -17.8711 77.6855 -17.8711 L 70.1172 -17.8711 C 68.7012 -17.8711 68.1152 -17.2852 68.1152 -15.8691 L 68.1152 9.32617 C 68.1152 9.91211 67.7734 10.3027 67.1875 10.3027 Z"/>
  </g>
  <g id="Light-L" transform="matrix(1 0 0 1 1075.13 1556)">
   <path d="M 69.2871 20.7031 C 72.7051 20.7031 74.9023 18.1641 74.9023 14.8926 L 74.9023 -10.791 L 77.2461 -10.791 C 104.492 -10.791 121.094 -3.61328 130.762 16.6504 C 132.324 19.873 134.326 20.7031 136.621 20.7031 C 139.355 20.7031 141.699 18.3594 141.699 14.3555 C 141.699 -34.4727 118.799 -59.375 77.2461 -59.375 L 74.9023 -59.375 L 74.9023 -85.2051 C 74.9023 -88.5254 72.7051 -91.2109 69.2383 -91.2109 C 66.7969 -91.2109 65.0391 -90.0879 62.793 -87.9883 L 13.2812 -41.8457 C 10.4004 -39.1602 9.81445 -37.1582 9.81445 -35.2539 C 9.81445 -33.3984 10.4492 -31.3965 13.2812 -28.7109 L 62.793 17.627 C 64.8926 19.5801 66.8945 20.7031 69.2871 20.7031 Z M 67.2852 12.207 C 66.8457 12.207 66.4062 11.9629 65.8203 11.4258 L 18.6035 -32.7637 C 17.4316 -33.7891 17.0898 -34.5215 17.0898 -35.2539 C 17.0898 -36.0352 17.4805 -36.7188 18.6035 -37.793 L 65.7715 -82.2266 C 66.2109 -82.6172 66.6504 -82.959 67.2363 -82.959 C 67.8711 -82.959 68.2617 -82.5684 68.2617 -81.9336 L 68.2617 -54.9316 C 68.2617 -53.6133 68.7988 -53.0762 70.1172 -53.0762 L 76.416 -53.0762 C 116.748 -53.0762 135.156 -27.6367 135.791 11.2305 C 135.791 11.7676 135.596 12.1094 135.059 12.1094 C 134.619 12.1094 134.375 11.6699 134.131 11.0352 C 126.172 -7.4707 107.129 -17.0898 76.416 -17.0898 L 70.1172 -17.0898 C 68.7988 -17.0898 68.2617 -16.6016 68.2617 -15.2344 L 68.2617 11.0352 C 68.2617 11.7188 67.9199 12.207 67.2852 12.207 Z"/>
  </g>
  <g id="Thin-L" transform="matrix(1 0 0 1 779.933 1556)">
   <path d="M 68.1641 19.2871 C 70.8984 19.2871 72.4121 17.2363 72.4121 14.6484 L 72.4121 -12.207 L 75.1953 -12.207 C 104.59 -12.207 122.07 -4.29688 130.713 15.7227 C 131.836 18.3594 133.154 19.2871 135.156 19.2871 C 137.402 19.2871 139.16 17.4805 139.16 14.5508 C 139.16 -35.9863 113.818 -57.7148 75.1953 -57.7148 L 72.4121 -57.7148 L 72.4121 -85.1562 C 72.4121 -87.7441 70.8984 -89.8438 68.1641 -89.8438 C 66.2598 -89.8438 64.7461 -88.8184 63.3301 -87.5 L 13.9648 -41.6504 C 10.7422 -38.6719 10.3027 -37.0117 10.3027 -35.2539 C 10.3027 -33.5449 10.8398 -31.8359 13.9648 -28.8574 L 63.3301 16.9922 C 64.6973 18.3105 66.2598 19.2871 68.1641 19.2871 Z M 67.3828 14.6484 C 66.8945 14.6484 66.4062 14.4043 65.6738 13.7207 L 16.6016 -31.7383 C 14.9902 -33.252 14.502 -34.2285 14.502 -35.2539 C 14.502 -36.3281 15.0391 -37.3047 16.6016 -38.7695 L 65.5762 -84.3262 C 66.1133 -84.8145 66.6016 -85.2539 67.2852 -85.2539 C 68.0176 -85.2539 68.457 -84.7656 68.457 -84.082 L 68.457 -55.5176 C 68.457 -54.2969 68.8965 -53.8574 70.1172 -53.8574 L 74.7559 -53.8574 C 112.891 -53.8574 135.449 -31.9824 135.547 13.8672 C 135.547 14.502 135.352 14.9414 134.668 14.9414 C 134.033 14.9414 133.74 14.3066 133.447 13.5254 C 125.098 -7.08008 106.104 -16.0645 74.7559 -16.0645 L 70.1172 -16.0645 C 68.8965 -16.0645 68.457 -15.6738 68.457 -14.4043 L 68.457 13.3301 C 68.457 14.1113 68.0664 14.6484 67.3828 14.6484 Z"/>
  </g>
  <g id="Ultralight-L" transform="matrix(1 0 0 1 484.003 1556)">
   <path d="M 67.5781 18.6035 C 70.0195 18.6035 71.0938 16.7969 71.0938 14.5508 L 71.0938 -12.9395 L 74.1211 -12.9395 C 104.639 -12.9395 122.559 -4.63867 130.664 15.2344 C 131.592 17.5781 132.568 18.6035 134.424 18.6035 C 136.377 18.6035 137.842 17.041 137.842 14.6484 C 137.842 -36.7676 111.279 -56.8848 74.1211 -56.8848 L 71.0938 -56.8848 L 71.0938 -85.1074 C 71.0938 -87.3535 70.0195 -89.1113 67.627 -89.1113 C 65.9668 -89.1113 64.5996 -88.1836 63.5742 -87.2559 L 14.3066 -41.6016 C 10.9375 -38.4277 10.5957 -36.9141 10.5957 -35.2539 C 10.5957 -33.5938 11.0352 -32.0801 14.3066 -28.9551 L 63.5742 16.6992 C 64.5996 17.6758 65.9668 18.6035 67.5781 18.6035 Z M 67.4316 15.918 C 66.9434 15.918 66.4062 15.6738 65.5762 14.9414 L 15.5762 -31.25 C 13.7207 -32.959 13.1836 -34.082 13.1836 -35.2539 C 13.1836 -36.4746 13.7695 -37.5977 15.5762 -39.3066 L 65.4785 -85.4004 C 66.0645 -85.8887 66.5527 -86.4258 67.334 -86.4258 C 68.0664 -86.4258 68.5547 -85.9375 68.5547 -85.1562 L 68.5547 -55.8594 C 68.5547 -54.6875 68.9453 -54.2969 70.1172 -54.2969 L 73.877 -54.2969 C 110.889 -54.2969 135.596 -34.1797 135.449 15.2344 C 135.449 15.918 135.205 16.4062 134.424 16.4062 C 133.74 16.4062 133.398 15.625 133.105 14.7949 C 124.561 -6.83594 105.566 -15.5762 73.877 -15.5762 L 70.1172 -15.5762 C 68.9453 -15.5762 68.5547 -15.1855 68.5547 -14.0137 L 68.5547 14.502 C 68.5547 15.332 68.1641 15.918 67.4316 15.918 Z"/>
  </g>
  <g id="Black-M" transform="matrix(1 0 0 1 2869.95 1126)">
   <path d="M 59.8145 13.4277 C 65.8691 13.4277 70.5078 8.78906 70.5078 2.73438 L 70.5078 -9.47266 L 70.752 -9.47266 C 83.7891 -9.47266 89.7949 -2.05078 93.4082 4.3457 C 96.4844 9.81445 99.5117 12.1582 104.297 12.1582 C 111.523 12.1582 115.088 4.78516 115.088 -10.2539 C 115.088 -42.7246 97.8516 -60.4004 70.752 -60.4004 L 70.5078 -60.4004 L 70.5078 -73.1445 C 70.5078 -79.1504 65.8691 -83.8379 59.8145 -83.8379 C 56.25 -83.8379 53.418 -82.5684 49.5117 -79.0527 L 10.2051 -43.0664 C 8.05664 -41.0645 6.83594 -38.0371 6.83594 -35.2051 C 6.83594 -32.5684 8.10547 -29.2969 10.2539 -27.2949 L 49.5117 8.64258 C 53.0762 11.9629 55.957 13.4277 59.8145 13.4277 Z M 55.4199 -8.74023 C 55.1758 -8.74023 54.9316 -8.88672 54.6875 -9.13086 L 27.7832 -34.3262 C 27.3926 -34.668 27.2949 -34.9609 27.2949 -35.2051 C 27.2949 -35.498 27.3926 -35.6934 27.7832 -36.084 L 54.6875 -61.2793 C 54.9316 -61.4746 55.1758 -61.5234 55.4199 -61.5234 C 55.9082 -61.5234 56.3477 -61.1328 56.3477 -60.498 L 56.3477 -46.3379 C 56.3477 -45.2637 56.7871 -44.873 57.8613 -44.873 L 62.5977 -44.873 C 84.8633 -44.873 100.293 -35.4492 100.293 -10.9375 C 100.293 -10.6934 100.146 -10.5957 99.9512 -10.5957 C 99.7559 -10.5957 99.6582 -10.6934 99.5117 -10.9375 C 93.457 -22.998 81.4453 -25.5371 62.5977 -25.5371 L 57.8613 -25.5371 C 56.7871 -25.5371 56.3477 -25.0977 56.3477 -24.0723 L 56.3477 -9.81445 C 56.3477 -9.17969 55.9082 -8.74023 55.4199 -8.74023 Z"/>
  </g>
  <g id="Heavy-M" transform="matrix(1 0 0 1 2573.58 1126)">
   <path d="M 58.6426 12.5 C 64.0137 12.5 68.1641 8.39844 68.1641 2.97852 L 68.1641 -10.7422 L 68.6523 -10.7422 C 83.1055 -10.7422 90.5273 -3.95508 95.3125 4.6875 C 98.0469 9.61914 100.879 11.5234 105.029 11.5234 C 111.133 11.5234 114.453 5.37109 114.453 -7.12891 C 114.453 -40.4785 97.7051 -59.2773 68.6523 -59.2773 L 68.1641 -59.2773 L 68.1641 -73.3398 C 68.1641 -78.7598 64.0137 -82.9102 58.5938 -82.9102 C 55.3223 -82.9102 52.7832 -81.7383 49.2188 -78.4668 L 10.0586 -42.4316 C 7.95898 -40.4785 6.93359 -37.7441 6.93359 -35.2051 C 6.93359 -32.8125 8.00781 -29.8828 10.1074 -27.9297 L 49.2188 8.10547 C 52.4902 11.1816 55.127 12.5 58.6426 12.5 Z M 54.6387 -6.88477 C 54.3457 -6.88477 54.1016 -7.03125 53.8574 -7.27539 L 25.0977 -34.3262 C 24.707 -34.7168 24.6094 -34.9609 24.6094 -35.2051 C 24.6094 -35.498 24.707 -35.7422 25.0977 -36.084 L 53.8574 -63.2324 C 54.1016 -63.4277 54.3457 -63.4766 54.6387 -63.4766 C 55.127 -63.4766 55.5176 -63.1348 55.5176 -62.5488 L 55.5176 -47.168 C 55.5176 -46.0938 55.957 -45.6543 57.0312 -45.6543 L 62.207 -45.6543 C 87.1094 -45.6543 101.27 -32.959 101.514 -8.83789 C 101.514 -8.54492 101.367 -8.39844 101.172 -8.39844 C 100.977 -8.39844 100.879 -8.54492 100.732 -8.83789 C 94.7266 -20.8984 82.0801 -24.7559 62.207 -24.7559 L 57.0312 -24.7559 C 55.957 -24.7559 55.5176 -24.3164 55.5176 -23.2422 L 55.5176 -7.91016 C 55.5176 -7.32422 55.127 -6.88477 54.6387 -6.88477 Z"/>
  </g>
  <g id="Bold-M" transform="matrix(1 0 0 1 2277.26 1126)">
   <path d="M 57.3242 11.4746 C 62.0117 11.4746 65.5273 7.95898 65.5273 3.27148 L 65.5273 -12.1582 L 66.3574 -12.1582 C 82.3242 -12.1582 91.3086 -6.05469 97.4121 5.12695 C 99.8047 9.42383 102.393 10.8398 105.859 10.8398 C 110.742 10.8398 113.721 6.00586 113.721 -3.66211 C 113.721 -37.9395 97.4609 -58.0078 66.3574 -58.0078 L 65.5273 -58.0078 L 65.5273 -73.584 C 65.5273 -78.2715 62.0117 -81.9336 57.2754 -81.9336 C 54.2969 -81.9336 52.0996 -80.8105 48.8281 -77.832 L 9.91211 -41.7969 C 7.91016 -39.8926 6.98242 -37.4512 6.98242 -35.2051 C 6.98242 -33.1055 7.91016 -30.5176 9.91211 -28.6621 L 48.8281 7.51953 C 51.8066 10.2539 54.1992 11.4746 57.3242 11.4746 Z M 53.7109 -4.88281 C 53.4668 -4.88281 53.2227 -4.98047 52.9297 -5.27344 L 22.1191 -34.3262 C 21.7285 -34.7168 21.582 -34.9609 21.582 -35.2051 C 21.582 -35.5469 21.7285 -35.7422 22.1191 -36.1328 L 52.9297 -65.3809 C 53.1738 -65.5762 53.418 -65.7227 53.7109 -65.7227 C 54.1992 -65.7227 54.541 -65.3809 54.541 -64.8926 L 54.541 -48.0957 C 54.541 -47.0215 55.0293 -46.5332 56.1035 -46.5332 L 61.7676 -46.5332 C 89.6484 -46.5332 102.393 -30.2246 102.881 -6.44531 C 102.881 -6.15234 102.734 -6.00586 102.539 -6.00586 C 102.344 -6.00586 102.197 -6.15234 102.1 -6.44531 C 96.1914 -18.5547 82.7637 -23.877 61.7676 -23.877 L 56.1035 -23.877 C 55.0293 -23.877 54.541 -23.4375 54.541 -22.3145 L 54.541 -5.76172 C 54.541 -5.22461 54.1992 -4.88281 53.7109 -4.88281 Z"/>
  </g>
  <g id="Semibold-M" transform="matrix(1 0 0 1 1980.82 1126)">
   <path d="M 56.4453 10.791 C 60.5957 10.791 63.7207 7.61719 63.7207 3.4668 L 63.7207 -13.1348 L 64.7461 -13.1348 C 81.7871 -13.1348 91.8945 -7.51953 98.8281 5.41992 C 100.977 9.27734 103.467 10.3516 106.396 10.3516 C 110.449 10.3516 113.232 6.44531 113.232 -1.2207 C 113.232 -36.1816 97.3633 -57.1289 64.7461 -57.1289 L 63.7207 -57.1289 L 63.7207 -73.7793 C 63.7207 -77.9297 60.5957 -81.25 56.3477 -81.25 C 53.5645 -81.25 51.6113 -80.127 48.584 -77.3438 L 9.76562 -41.3086 C 7.8125 -39.4531 7.03125 -37.2559 7.03125 -35.2539 C 7.03125 -33.3008 7.86133 -31.0059 9.81445 -29.1504 L 48.584 7.08008 C 51.3184 9.61914 53.5645 10.791 56.4453 10.791 Z M 53.125 -3.4668 C 52.832 -3.4668 52.5879 -3.56445 52.2949 -3.85742 L 20.0195 -34.3262 C 19.6289 -34.7168 19.5312 -34.9609 19.5312 -35.2539 C 19.5312 -35.5469 19.6777 -35.791 20.0195 -36.1328 L 52.2949 -66.8945 C 52.5391 -67.0898 52.7832 -67.2363 53.125 -67.2363 C 53.5645 -67.2363 53.8574 -66.9434 53.8574 -66.4551 L 53.8574 -48.7305 C 53.8574 -47.6562 54.3457 -47.168 55.4688 -47.168 L 61.4258 -47.168 C 91.3574 -47.168 103.174 -28.3203 103.809 -4.78516 C 103.809 -4.49219 103.662 -4.3457 103.467 -4.3457 C 103.271 -4.3457 103.174 -4.49219 103.027 -4.78516 C 97.168 -16.9434 83.252 -23.291 61.4258 -23.291 L 55.4688 -23.291 C 54.3457 -23.291 53.8574 -22.8027 53.8574 -21.6797 L 53.8574 -4.29688 C 53.8574 -3.80859 53.5645 -3.4668 53.125 -3.4668 Z"/>
  </g>
  <g id="Medium-M" transform="matrix(1 0 0 1 1684.3 1126)">
   <path d="M 55.7617 10.2051 C 59.5215 10.2051 62.3535 7.42188 62.3535 3.61328 L 62.3535 -13.8672 L 63.5742 -13.8672 C 81.3965 -13.8672 92.2852 -8.64258 99.9512 5.61523 C 101.904 9.17969 104.248 10.0098 106.836 10.0098 C 110.254 10.0098 112.891 6.78711 112.891 0.585938 C 112.891 -34.8633 97.2168 -56.4941 63.5742 -56.4941 L 62.3535 -56.4941 L 62.3535 -73.877 C 62.3535 -77.6855 59.5215 -80.7129 55.6641 -80.7129 C 53.0762 -80.7129 51.2207 -79.6387 48.3887 -77.002 L 9.7168 -40.9668 C 7.8125 -39.1602 7.08008 -37.1094 7.08008 -35.2539 C 7.08008 -33.4473 7.8125 -31.3477 9.7168 -29.541 L 48.3887 6.73828 C 50.9766 9.17969 53.0762 10.2051 55.7617 10.2051 Z M 52.6367 -2.39258 C 52.3926 -2.39258 52.0996 -2.53906 51.8066 -2.7832 L 18.457 -34.3262 C 18.0664 -34.7168 17.9199 -34.9609 17.9199 -35.2539 C 17.9199 -35.5469 18.0664 -35.791 18.457 -36.1816 L 51.8066 -68.0176 C 52.0508 -68.2617 52.3438 -68.4082 52.6367 -68.4082 C 53.0762 -68.4082 53.3691 -68.1152 53.3691 -67.6758 L 53.3691 -49.2188 C 53.3691 -48.0957 53.8574 -47.6074 54.9805 -47.6074 L 61.2305 -47.6074 C 92.6758 -47.6074 103.711 -26.8555 104.541 -3.56445 C 104.541 -3.22266 104.395 -3.07617 104.15 -3.07617 C 103.955 -3.07617 103.857 -3.22266 103.711 -3.51562 C 97.9004 -15.7227 83.5938 -22.8027 61.2305 -22.8027 L 54.9805 -22.8027 C 53.8574 -22.8027 53.3691 -22.3145 53.3691 -21.1914 L 53.3691 -3.17383 C 53.3691 -2.68555 53.0762 -2.39258 52.6367 -2.39258 Z"/>
  </g>
  <g id="Regular-M" transform="matrix(1 0 0 1 1387.86 1126)">
   <path d="M 54.834 9.52148 C 58.1543 9.52148 60.5469 7.08008 60.5469 3.80859 L 60.5469 -14.8438 L 61.9629 -14.8438 C 80.9082 -14.8438 92.8223 -10.0586 101.367 5.9082 C 103.076 9.0332 105.322 9.52148 107.373 9.52148 C 109.961 9.52148 112.402 7.17773 112.402 2.97852 C 112.402 -33.1055 97.1191 -55.6152 61.9629 -55.6152 L 60.5469 -55.6152 L 60.5469 -74.0723 C 60.5469 -77.3438 58.1543 -80.0293 54.7363 -80.0293 C 52.3438 -80.0293 50.7324 -79.0039 48.1445 -76.5625 L 9.61914 -40.5273 C 7.71484 -38.7207 7.12891 -36.9141 7.12891 -35.2539 C 7.12891 -33.6426 7.76367 -31.7871 9.61914 -30.0293 L 48.1445 6.34766 C 50.4883 8.54492 52.4414 9.52148 54.834 9.52148 Z M 52.0508 -0.976562 C 51.7578 -0.976562 51.4648 -1.12305 51.2207 -1.41602 L 16.4062 -34.3262 C 16.0156 -34.7168 15.8691 -34.9609 15.8691 -35.2539 C 15.8691 -35.5469 16.0156 -35.8398 16.4062 -36.1816 L 51.1719 -69.5312 C 51.416 -69.7266 51.709 -69.9219 52.002 -69.9219 C 52.4414 -69.9219 52.6855 -69.6289 52.6855 -69.2383 L 52.6855 -49.8535 C 52.6855 -48.7305 53.2227 -48.2422 54.3457 -48.2422 L 60.8887 -48.2422 C 94.3848 -48.2422 104.492 -25 105.469 -1.95312 C 105.469 -1.5625 105.322 -1.41602 105.078 -1.41602 C 104.883 -1.41602 104.785 -1.5625 104.639 -1.9043 C 98.877 -14.1602 84.082 -22.2168 60.8887 -22.2168 L 54.3457 -22.2168 C 53.2227 -22.2168 52.6855 -21.7285 52.6855 -20.6055 L 52.6855 -1.70898 C 52.6855 -1.26953 52.4414 -0.976562 52.0508 -0.976562 Z"/>
  </g>
  <g id="Light-M" transform="matrix(1 0 0 1 1092.17 1126)">
   <path d="M 54.1016 8.59375 C 56.9336 8.59375 58.8867 6.49414 58.8867 3.66211 L 58.8867 -15.8203 L 60.5957 -15.8203 C 80.957 -15.8203 93.5059 -10.498 101.318 5.27344 C 102.734 8.00781 104.492 8.59375 106.396 8.59375 C 108.643 8.59375 110.693 6.5918 110.693 3.125 C 110.693 -34.1309 93.75 -54.4922 60.5957 -54.4922 L 58.8867 -54.4922 L 58.8867 -73.9746 C 58.8867 -76.8066 56.9336 -79.1016 54.0039 -79.1016 C 51.9531 -79.1016 50.5371 -78.1738 48.4863 -76.2695 L 10.0586 -40.4297 C 7.95898 -38.4277 7.4707 -36.8164 7.4707 -35.2539 C 7.4707 -33.7402 8.00781 -32.0801 10.0586 -30.127 L 48.4863 5.9082 C 50.3906 7.66602 52.0508 8.59375 54.1016 8.59375 Z M 52.0996 0.683594 C 51.8066 0.683594 51.4648 0.537109 51.0742 0.146484 L 15.0879 -33.6426 C 14.3555 -34.3262 14.1602 -34.7656 14.1602 -35.2539 C 14.1602 -35.7422 14.3555 -36.1816 15.0879 -36.8652 L 51.0742 -70.9473 C 51.3672 -71.2402 51.6602 -71.4844 52.0508 -71.4844 C 52.5391 -71.4844 52.832 -71.1426 52.832 -70.7031 L 52.832 -50.293 C 52.832 -49.2188 53.2715 -48.7793 54.3457 -48.7793 L 59.7656 -48.7793 C 91.7969 -48.7793 104.639 -27.9297 105.322 -0.146484 C 105.322 0.292969 105.176 0.537109 104.834 0.537109 C 104.492 0.537109 104.346 0.195312 104.15 -0.195312 C 98.1445 -13.8672 83.3496 -21.5332 59.7656 -21.5332 L 54.3457 -21.5332 C 53.2715 -21.5332 52.832 -21.0938 52.832 -20.0195 L 52.832 -0.146484 C 52.832 0.341797 52.5391 0.683594 52.0996 0.683594 Z"/>
  </g>
  <g id="Thin-M" transform="matrix(1 0 0 1 796.828 1126)">
   <path d="M 53.0762 7.32422 C 55.3711 7.32422 56.6406 5.66406 56.6406 3.4668 L 56.6406 -17.0898 L 58.6914 -17.0898 C 81.0547 -17.0898 94.3848 -11.1328 101.318 4.44336 C 102.295 6.64062 103.467 7.32422 105.078 7.32422 C 106.885 7.32422 108.398 5.81055 108.398 3.32031 C 108.398 -35.498 89.3066 -53.0273 58.6914 -53.0273 L 56.6406 -53.0273 L 56.6406 -73.9258 C 56.6406 -76.123 55.3711 -77.832 53.0762 -77.832 C 51.4648 -77.832 50.2441 -77.0508 48.9746 -75.8301 L 10.6934 -40.2344 C 8.25195 -37.9883 7.91016 -36.6211 7.91016 -35.2539 C 7.91016 -33.8867 8.30078 -32.5195 10.6934 -30.2734 L 48.9746 5.37109 C 50.1953 6.54297 51.4648 7.32422 53.0762 7.32422 Z M 52.1973 2.88086 C 51.8555 2.88086 51.4648 2.73438 50.9277 2.24609 L 13.2812 -32.7637 C 12.1582 -33.8379 11.8164 -34.5215 11.8164 -35.2539 C 11.8164 -35.9863 12.207 -36.7188 13.2812 -37.7441 L 50.8789 -72.8516 C 51.2695 -73.1934 51.6113 -73.4863 52.1484 -73.4863 C 52.6855 -73.4863 53.0273 -73.1445 53.0273 -72.6074 L 53.0273 -50.8301 C 53.0273 -49.8535 53.3691 -49.5117 54.3457 -49.5117 L 58.3008 -49.5117 C 88.3301 -49.5117 104.883 -31.7871 105.127 2.24609 C 105.127 2.73438 104.932 3.07617 104.443 3.07617 C 104.004 3.07617 103.809 2.58789 103.564 2.00195 C 97.168 -13.4766 82.4707 -20.6055 58.3008 -20.6055 L 54.3457 -20.6055 C 53.3691 -20.6055 53.0273 -20.2637 53.0273 -19.2871 L 53.0273 1.9043 C 53.0273 2.49023 52.7344 2.88086 52.1973 2.88086 Z"/>
  </g>
  <g id="Ultralight-M" transform="matrix(1 0 0 1 500.8 1126)">
   <path d="M 52.5391 6.68945 C 54.541 6.68945 55.5176 5.22461 55.5176 3.36914 L 55.5176 -17.7246 L 57.7637 -17.7246 C 81.1035 -17.7246 94.8242 -11.4258 101.27 4.05273 C 102.051 5.95703 102.93 6.68945 104.395 6.68945 C 106.006 6.68945 107.227 5.41992 107.227 3.36914 C 107.227 -36.1816 87.0117 -52.2949 57.7637 -52.2949 L 55.5176 -52.2949 L 55.5176 -73.877 C 55.5176 -75.7324 54.541 -77.1973 52.5391 -77.1973 C 51.2207 -77.1973 50.0977 -76.4648 49.1699 -75.6348 L 10.9863 -40.1855 C 8.44727 -37.793 8.10547 -36.5723 8.10547 -35.2539 C 8.10547 -33.9355 8.49609 -32.7148 10.9863 -30.3223 L 49.1699 5.12695 C 50.0977 5.95703 51.2207 6.68945 52.5391 6.68945 Z M 52.2461 4.05273 C 51.8555 4.05273 51.4648 3.85742 50.8301 3.27148 L 12.4023 -32.2754 C 10.9863 -33.5449 10.6445 -34.375 10.6445 -35.2539 C 10.6445 -36.1328 11.084 -36.9629 12.4023 -38.2324 L 50.7812 -73.7793 C 51.2207 -74.1699 51.6113 -74.5605 52.1484 -74.5605 C 52.7344 -74.5605 53.125 -74.1699 53.125 -73.584 L 53.125 -51.123 C 53.125 -50.1953 53.418 -49.8535 54.3457 -49.8535 L 57.5195 -49.8535 C 86.5723 -49.8535 105.029 -33.7402 105.029 3.4668 C 105.029 4.00391 104.834 4.3457 104.248 4.3457 C 103.76 4.3457 103.516 3.80859 103.223 3.17383 C 96.6797 -13.3301 81.9824 -20.1172 57.5195 -20.1172 L 54.3457 -20.1172 C 53.418 -20.1172 53.125 -19.8242 53.125 -18.8965 L 53.125 2.97852 C 53.125 3.61328 52.7832 4.05273 52.2461 4.05273 Z"/>
  </g>
  <g id="Black-S" transform="matrix(1 0 0 1 2883.69 696)">
   <path d="M 46.7773 2.83203 C 51.4648 2.83203 55.0781 -0.78125 55.0781 -5.46875 L 55.0781 -15.1367 L 55.2734 -15.1367 C 65.5762 -15.1367 70.4102 -9.375 73.3398 -4.19922 C 75.7324 0.0488281 78.0762 1.85547 81.7871 1.85547 C 87.3535 1.85547 90.1367 -3.80859 90.1367 -15.4297 C 90.1367 -40.918 76.709 -54.8828 55.2734 -54.8828 L 55.0781 -54.8828 L 55.0781 -64.9414 C 55.0781 -69.6289 51.4648 -73.2422 46.7773 -73.2422 C 43.9941 -73.2422 41.7969 -72.2656 38.7695 -69.5312 L 7.95898 -41.3086 C 6.29883 -39.7461 5.37109 -37.4023 5.37109 -35.2051 C 5.37109 -33.1543 6.34766 -30.6152 8.00781 -29.0527 L 38.7695 -0.878906 C 41.5527 1.70898 43.7988 2.83203 46.7773 2.83203 Z M 43.3594 -14.3555 C 43.1641 -14.3555 42.9688 -14.4531 42.7734 -14.6484 L 21.582 -34.5215 C 21.2891 -34.8145 21.1914 -35.0098 21.1914 -35.2051 C 21.1914 -35.4492 21.2891 -35.5957 21.582 -35.8887 L 42.7734 -55.7617 C 42.9688 -55.9082 43.1641 -55.957 43.3594 -55.957 C 43.75 -55.957 44.0918 -55.6641 44.0918 -55.1758 L 44.0918 -43.9941 C 44.0918 -43.1641 44.4336 -42.8223 45.2637 -42.8223 L 49.0234 -42.8223 C 66.6992 -42.8223 78.6621 -35.1562 78.6621 -16.0645 C 78.6621 -15.8691 78.5645 -15.7715 78.418 -15.7715 C 78.2715 -15.7715 78.1738 -15.8691 78.0762 -16.0645 C 73.3398 -25.4883 63.8672 -27.5879 49.0234 -27.5879 L 45.2637 -27.5879 C 44.4336 -27.5879 44.0918 -27.2461 44.0918 -26.416 L 44.0918 -15.1855 C 44.0918 -14.6973 43.75 -14.3555 43.3594 -14.3555 Z"/>
  </g>
  <g id="Heavy-S" transform="matrix(1 0 0 1 2587.13 696)">
   <path d="M 45.9473 2.24609 C 50.1953 2.24609 53.4668 -1.02539 53.4668 -5.27344 L 53.4668 -16.0156 L 53.8574 -16.0156 C 65.0391 -16.0156 70.8984 -10.791 74.7559 -3.85742 C 76.9531 0 79.1992 1.46484 82.4707 1.46484 C 87.207 1.46484 89.8438 -3.32031 89.8438 -13.0371 C 89.8438 -39.0625 76.9531 -54.1504 53.8574 -54.1504 L 53.4668 -54.1504 L 53.4668 -65.1367 C 53.4668 -69.3359 50.1953 -72.6562 45.9473 -72.6562 C 43.3105 -72.6562 41.3574 -71.7285 38.4766 -69.1406 L 7.8125 -40.8691 C 6.20117 -39.3555 5.37109 -37.207 5.37109 -35.2051 C 5.37109 -33.3496 6.25 -31.0059 7.86133 -29.541 L 38.4766 -1.26953 C 41.1133 1.17188 43.2129 2.24609 45.9473 2.24609 Z M 42.7246 -13.1348 C 42.5293 -13.1348 42.334 -13.2324 42.1387 -13.4277 L 19.6777 -34.6191 C 19.4336 -34.8633 19.3359 -35.0586 19.3359 -35.2051 C 19.3359 -35.4492 19.4336 -35.5957 19.6777 -35.8398 L 42.1387 -57.0801 C 42.334 -57.2266 42.5293 -57.3242 42.7246 -57.3242 C 43.1152 -57.3242 43.4082 -57.0312 43.4082 -56.5918 L 43.4082 -44.5801 C 43.4082 -43.75 43.7988 -43.3594 44.6289 -43.3594 L 48.8281 -43.3594 C 68.7012 -43.3594 79.3945 -32.959 79.5898 -14.6484 C 79.5898 -14.4531 79.4922 -14.3066 79.3945 -14.3066 C 79.248 -14.3066 79.1504 -14.4043 79.0527 -14.5996 C 74.4141 -23.9258 64.4043 -27.0508 48.8281 -27.0508 L 44.6289 -27.0508 C 43.7988 -27.0508 43.4082 -26.709 43.4082 -25.8301 L 43.4082 -13.916 C 43.4082 -13.4277 43.1152 -13.1348 42.7246 -13.1348 Z"/>
  </g>
  <g id="Bold-S" transform="matrix(1 0 0 1 2290.59 696)">
   <path d="M 45.0684 1.5625 C 48.8281 1.5625 51.6602 -1.26953 51.6602 -5.0293 L 51.6602 -16.9922 L 52.2461 -16.9922 C 64.4531 -16.9922 71.4355 -12.3535 76.3672 -3.4668 C 78.3203 0 80.4688 1.07422 83.2031 1.07422 C 87.0605 1.07422 89.502 -2.73438 89.502 -10.4004 C 89.502 -37.0117 77.1973 -53.3203 52.2461 -53.3203 L 51.6602 -53.3203 L 51.6602 -65.2832 C 51.6602 -69.043 48.8281 -72.0215 45.0195 -72.0215 C 42.5781 -72.0215 40.8203 -71.0938 38.1836 -68.6523 L 7.61719 -40.3809 C 6.10352 -38.9648 5.41992 -37.0117 5.41992 -35.2539 C 5.41992 -33.5449 6.15234 -31.4941 7.66602 -30.0781 L 38.1836 -1.66016 C 40.5762 0.585938 42.5293 1.5625 45.0684 1.5625 Z M 42.041 -11.7676 C 41.8457 -11.7676 41.6504 -11.8652 41.4551 -12.0605 L 17.5293 -34.668 C 17.334 -34.9121 17.2363 -35.0586 17.2363 -35.2539 C 17.2363 -35.4004 17.334 -35.5469 17.5293 -35.791 L 41.4551 -58.5938 C 41.6504 -58.7402 41.8457 -58.7891 42.041 -58.7891 C 42.3828 -58.7891 42.6758 -58.5449 42.6758 -58.1543 L 42.6758 -45.2637 C 42.6758 -44.3848 43.0664 -43.9941 43.9453 -43.9941 L 48.6328 -43.9941 C 70.9473 -43.9941 80.2246 -30.4688 80.6641 -13.0371 C 80.6641 -12.8418 80.5664 -12.6953 80.4688 -12.6953 C 80.3223 -12.6953 80.2246 -12.793 80.127 -12.9883 C 75.5859 -22.168 65.0391 -26.4648 48.6328 -26.4648 L 43.9453 -26.4648 C 43.0664 -26.4648 42.6758 -26.123 42.6758 -25.2441 L 42.6758 -12.4512 C 42.6758 -12.0605 42.3828 -11.7676 42.041 -11.7676 Z"/>
  </g>
  <g id="Semibold-S" transform="matrix(1 0 0 1 1994 696)">
   <path d="M 44.4336 1.12305 C 47.8516 1.12305 50.4395 -1.46484 50.4395 -4.83398 L 50.4395 -17.627 L 51.1719 -17.627 C 64.0625 -17.627 71.7773 -13.4277 77.4902 -3.17383 C 79.248 -0.0488281 81.3477 0.78125 83.6914 0.78125 C 86.9629 0.78125 89.3066 -2.39258 89.3066 -8.54492 C 89.3066 -35.5469 77.3926 -52.7344 51.1719 -52.7344 L 50.4395 -52.7344 L 50.4395 -65.4297 C 50.4395 -68.8477 47.8516 -71.582 44.3848 -71.582 C 42.0898 -71.582 40.4785 -70.6543 37.9395 -68.3105 L 7.51953 -40.0391 C 6.05469 -38.623 5.41992 -36.8652 5.41992 -35.2539 C 5.41992 -33.6914 6.05469 -31.8359 7.51953 -30.4688 L 37.9395 -1.95312 C 40.2344 0.195312 42.0898 1.12305 44.4336 1.12305 Z M 41.5527 -10.8398 C 41.3574 -10.8398 41.1621 -10.9375 41.0156 -11.1328 L 16.0645 -34.7656 C 15.8691 -34.9609 15.8203 -35.1074 15.8203 -35.2539 C 15.8203 -35.4004 15.8691 -35.5469 16.0645 -35.7422 L 41.0156 -59.6191 C 41.1621 -59.7656 41.3574 -59.8633 41.5527 -59.8633 C 41.8945 -59.8633 42.1387 -59.6191 42.1387 -59.2773 L 42.1387 -45.7031 C 42.1387 -44.8242 42.5293 -44.4336 43.4082 -44.4336 L 48.4863 -44.4336 C 72.5098 -44.4336 80.7617 -28.7598 81.3965 -11.9629 C 81.3965 -11.7188 81.2988 -11.6211 81.2012 -11.6211 C 81.0547 -11.6211 81.0059 -11.6699 80.9082 -11.8652 C 76.416 -20.9473 65.4785 -26.0742 48.4863 -26.0742 L 43.4082 -26.0742 C 42.5293 -26.0742 42.1387 -25.6836 42.1387 -24.8047 L 42.1387 -11.4746 C 42.1387 -11.084 41.8945 -10.8398 41.5527 -10.8398 Z"/>
  </g>
  <g id="Medium-S" transform="matrix(1 0 0 1 1697.39 696)">
   <path d="M 43.9453 0.732422 C 47.1191 0.732422 49.5117 -1.5625 49.5117 -4.73633 L 49.5117 -18.1641 L 50.3418 -18.1641 C 63.7207 -18.1641 72.0703 -14.2578 78.3203 -2.97852 C 79.9805 -0.0488281 82.0312 0.585938 84.082 0.585938 C 86.9141 0.585938 89.1113 -2.09961 89.1113 -7.17773 C 89.1113 -34.4727 77.5391 -52.2949 50.3418 -52.2949 L 49.5117 -52.2949 L 49.5117 -65.5273 C 49.5117 -68.7012 47.1191 -71.2402 43.8965 -71.2402 C 41.6992 -71.2402 40.1855 -70.3613 37.793 -68.0664 L 7.42188 -39.7949 C 6.00586 -38.4277 5.41992 -36.7676 5.41992 -35.2539 C 5.41992 -33.7891 6.00586 -32.0801 7.42188 -30.7617 L 37.793 -2.14844 C 39.9902 -0.146484 41.748 0.732422 43.9453 0.732422 Z M 41.2109 -10.1562 C 41.0156 -10.1562 40.8203 -10.2539 40.625 -10.4004 L 14.9414 -34.8145 C 14.7949 -34.9609 14.7461 -35.1074 14.7461 -35.2539 C 14.7461 -35.4004 14.7949 -35.5469 14.9414 -35.6934 L 40.625 -60.4004 C 40.8203 -60.5469 41.0156 -60.6445 41.2109 -60.6445 C 41.5039 -60.6445 41.748 -60.4004 41.748 -60.1074 L 41.748 -46.0449 C 41.748 -45.166 42.1387 -44.7266 43.0664 -44.7266 L 48.3887 -44.7266 C 73.6816 -44.7266 81.2012 -27.4902 81.9824 -11.1328 C 81.9824 -10.8887 81.8848 -10.7422 81.7383 -10.7422 C 81.6406 -10.7422 81.543 -10.8398 81.4453 -11.0352 C 77.002 -20.0684 65.7715 -25.7812 48.3887 -25.7812 L 43.0664 -25.7812 C 42.1387 -25.7812 41.748 -25.3418 41.748 -24.4629 L 41.748 -10.6934 C 41.748 -10.3516 41.5039 -10.1562 41.2109 -10.1562 Z"/>
  </g>
  <g id="Regular-S" transform="matrix(1 0 0 1 1400.8 696)">
   <path d="M 43.3594 0.292969 C 46.1426 0.292969 48.291 -1.75781 48.291 -4.54102 L 48.291 -18.7988 L 49.2676 -18.7988 C 63.3301 -18.7988 72.4121 -15.2832 79.4434 -2.68555 C 80.9082 -0.0488281 82.8613 0.292969 84.6191 0.292969 C 86.8164 0.292969 88.916 -1.70898 88.916 -5.37109 C 88.916 -33.0566 77.6855 -51.709 49.2676 -51.709 L 48.291 -51.709 L 48.291 -65.6738 C 48.291 -68.457 46.1426 -70.8008 43.2617 -70.8008 C 41.2109 -70.8008 39.8438 -69.9219 37.5488 -67.7734 L 7.27539 -39.4531 C 5.95703 -38.1348 5.41992 -36.6211 5.41992 -35.2539 C 5.41992 -33.9355 5.95703 -32.373 7.27539 -31.1035 L 37.5488 -2.44141 C 39.6484 -0.537109 41.3086 0.292969 43.3594 0.292969 Z M 40.7227 -9.22852 C 40.5273 -9.22852 40.332 -9.32617 40.1855 -9.47266 L 13.5254 -34.8633 C 13.3789 -35.0098 13.2812 -35.1074 13.2812 -35.2539 C 13.2812 -35.4004 13.3789 -35.498 13.5254 -35.6445 L 40.1855 -61.4258 C 40.332 -61.5723 40.5273 -61.6699 40.7227 -61.6699 C 41.0156 -61.6699 41.2109 -61.4746 41.2109 -61.1816 L 41.2109 -46.4844 C 41.2109 -45.6055 41.6504 -45.166 42.5781 -45.166 L 48.2422 -45.166 C 75.2441 -45.166 81.7871 -25.7812 82.7148 -10.0098 C 82.7148 -9.76562 82.5684 -9.66797 82.4707 -9.66797 C 82.373 -9.66797 82.3242 -9.7168 82.2266 -9.96094 C 77.832 -18.8477 66.2109 -25.3906 48.2422 -25.3906 L 42.5781 -25.3906 C 41.6504 -25.3906 41.2109 -24.9512 41.2109 -24.0234 L 41.2109 -9.7168 C 41.2109 -9.42383 41.0156 -9.22852 40.7227 -9.22852 Z"/>
  </g>
  <g id="Light-S" transform="matrix(1 0 0 1 1104.99 696)">
   <path d="M 42.6758 -0.537109 C 45.0684 -0.537109 46.7773 -2.29492 46.7773 -4.6875 L 46.7773 -19.6289 L 47.998 -19.6289 C 63.3789 -19.6289 72.998 -15.7227 79.3945 -3.22266 C 80.6152 -0.976562 82.1777 -0.537109 83.7402 -0.537109 C 85.6445 -0.537109 87.3535 -2.24609 87.3535 -5.22461 C 87.3535 -33.9844 74.707 -50.7324 47.998 -50.7324 L 46.7773 -50.7324 L 46.7773 -65.625 C 46.7773 -68.0176 45.0684 -69.9707 42.5781 -69.9707 C 40.8691 -69.9707 39.6484 -69.1895 37.8418 -67.4805 L 7.71484 -39.3555 C 6.15234 -37.8418 5.71289 -36.5234 5.71289 -35.2539 C 5.71289 -34.0332 6.15234 -32.666 7.71484 -31.2012 L 37.8418 -2.83203 C 39.502 -1.26953 40.918 -0.537109 42.6758 -0.537109 Z M 40.7715 -7.71484 C 40.5762 -7.71484 40.332 -7.86133 40.0879 -8.10547 L 12.3047 -34.2773 C 11.8652 -34.668 11.7676 -34.9609 11.7676 -35.2539 C 11.7676 -35.5469 11.9141 -35.8398 12.3047 -36.2305 L 40.0391 -62.6465 C 40.2832 -62.8418 40.4785 -63.0371 40.7715 -63.0371 C 41.1133 -63.0371 41.3574 -62.793 41.3574 -62.4512 L 41.3574 -46.875 C 41.3574 -45.9961 41.6992 -45.6543 42.5781 -45.6543 L 47.2656 -45.6543 C 72.9004 -45.6543 81.9336 -28.3691 82.5684 -8.44727 C 82.5684 -8.10547 82.4219 -7.95898 82.2266 -7.95898 C 82.0312 -7.95898 81.9336 -8.1543 81.7871 -8.44727 C 77.1484 -18.6035 65.5762 -24.7559 47.2656 -24.7559 L 42.5781 -24.7559 C 41.6992 -24.7559 41.3574 -24.4141 41.3574 -23.5352 L 41.3574 -8.34961 C 41.3574 -7.95898 41.1133 -7.71484 40.7715 -7.71484 Z"/>
  </g>
  <g id="Thin-S" transform="matrix(1 0 0 1 809.474 696)">
   <path d="M 41.7969 -1.66016 C 43.6523 -1.66016 44.8242 -3.02734 44.8242 -4.88281 L 44.8242 -20.752 L 46.3379 -20.752 C 63.4766 -20.752 73.7793 -16.2109 79.3945 -3.95508 C 80.2246 -2.14844 81.25 -1.66016 82.5684 -1.66016 C 84.082 -1.66016 85.3516 -2.92969 85.3516 -5.07812 C 85.3516 -35.1562 70.8008 -49.4629 46.3379 -49.4629 L 44.8242 -49.4629 L 44.8242 -65.5762 C 44.8242 -67.3828 43.6523 -68.8477 41.748 -68.8477 C 40.4297 -68.8477 39.4043 -68.2129 38.2812 -67.1387 L 8.25195 -39.209 C 6.39648 -37.5 6.10352 -36.377 6.10352 -35.2539 C 6.10352 -34.1309 6.44531 -33.0078 8.25195 -31.2988 L 38.2812 -3.32031 C 39.3555 -2.29492 40.4297 -1.66016 41.7969 -1.66016 Z M 40.8691 -5.76172 C 40.5762 -5.76172 40.332 -5.9082 39.9414 -6.29883 L 10.7422 -33.4473 C 9.91211 -34.2285 9.7168 -34.7168 9.7168 -35.2539 C 9.7168 -35.791 9.96094 -36.2793 10.7422 -37.0605 L 39.8926 -64.3066 C 40.1855 -64.5996 40.4785 -64.8438 40.8203 -64.8438 C 41.2109 -64.8438 41.5039 -64.5508 41.5039 -64.1602 L 41.5039 -47.3633 C 41.5039 -46.582 41.7969 -46.2891 42.5781 -46.2891 L 45.9473 -46.2891 C 69.873 -46.2891 82.1289 -31.7871 82.373 -6.29883 C 82.373 -5.95703 82.2754 -5.71289 81.8848 -5.71289 C 81.5918 -5.71289 81.4453 -6.05469 81.25 -6.49414 C 76.3184 -18.2617 64.7949 -23.9746 45.9473 -23.9746 L 42.5781 -23.9746 C 41.7969 -23.9746 41.5039 -23.6816 41.5039 -22.9004 L 41.5039 -6.54297 C 41.5039 -6.10352 41.2598 -5.76172 40.8691 -5.76172 Z"/>
  </g>
  <g id="Ultralight-S" transform="matrix(1 0 0 1 513.373 696)">
   <path d="M 41.3086 -2.19727 C 42.9199 -2.19727 43.7988 -3.41797 43.7988 -4.98047 L 43.7988 -21.3379 L 45.5078 -21.3379 C 63.5254 -21.3379 74.1699 -16.5039 79.3457 -4.3457 C 80.0293 -2.7832 80.7617 -2.19727 81.9824 -2.19727 C 83.3008 -2.19727 84.3262 -3.27148 84.3262 -4.98047 C 84.3262 -35.791 68.75 -48.7793 45.5078 -48.7793 L 43.7988 -48.7793 L 43.7988 -65.5273 C 43.7988 -67.041 42.9199 -68.3105 41.3086 -68.3105 C 40.1855 -68.3105 39.3066 -67.6758 38.4766 -66.9434 L 8.54492 -39.1113 C 6.54297 -37.3047 6.29883 -36.2793 6.29883 -35.2539 C 6.29883 -34.2285 6.5918 -33.2031 8.54492 -31.3965 L 38.4766 -3.56445 C 39.2578 -2.83203 40.1855 -2.19727 41.3086 -2.19727 Z M 40.918 -4.78516 C 40.625 -4.78516 40.332 -4.93164 39.8438 -5.32227 L 9.96094 -33.0566 C 8.93555 -33.9844 8.64258 -34.6191 8.64258 -35.2539 C 8.64258 -35.8887 8.98438 -36.5234 9.96094 -37.4512 L 39.7949 -65.1855 C 40.1367 -65.4785 40.4297 -65.7715 40.8691 -65.7715 C 41.3086 -65.7715 41.6016 -65.4785 41.6016 -65.0391 L 41.6016 -47.6074 C 41.6016 -46.875 41.8457 -46.582 42.5781 -46.582 L 45.2637 -46.582 C 68.2617 -46.582 82.2266 -33.5449 82.2754 -5.22461 C 82.2754 -4.83398 82.1289 -4.54102 81.7383 -4.54102 C 81.3477 -4.54102 81.1523 -4.98047 80.957 -5.46875 C 75.8789 -18.1152 64.3555 -23.5352 45.2637 -23.5352 L 42.5781 -23.5352 C 41.8457 -23.5352 41.6016 -23.291 41.6016 -22.5586 L 41.6016 -5.56641 C 41.6016 -5.12695 41.3574 -4.78516 40.918 -4.78516 Z"/>
  </g>
 </g>
</svg>
